# Blender v2.78 (sub 0) OBJ File: ''
# www.blender.org
mtllib minecraft.mtl
o Cube
v 1.000000 -1.000000 -1.000000
v 1.000000 -1.000000 1.000000
v -1.000000 -1.000000 1.000000
v -1.000000 -1.000000 -1.000000
v 1.000000 1.000000 -0.999999
v 0.999999 1.000000 1.000001
v -1.000000 1.000000 1.000000
v -1.000000 1.000000 -1.000000
vt 0.0022 1.0002
vt 0.3341 0.5011
vt 0.0021 0.5009
vt 0.3341 0.5007
vt 0.3340 -0.0000
vt 0.6680 0.5008
vt 0.3340 0.5008
vt 0.3340 1.0000
vt 0.6680 1.0000
vt 0.6680 0.5008
vt 0.6680 -0.0000
vt 1.0000 0.0000
vt 1.0000 1.0000
vt 1.0000 0.5008
vt 0.6680 0.5008
vt 0.0028 0.4990
vt 0.0018 0.0015
vt 0.3341 0.0008
vt 0.6680 0.0000
vt 0.3339 0.5020
vt 0.0022 0.9999
vt 0.3345 1.0000
vt 0.6679 1.0001
vt 0.6680 0.5010
vt 1.0000 0.5008
vt 0.6680 1.0000
vt 0.3331 -0.0007
vt 0.3344 0.4989
vt 0.0018 0.4990
vn 0.0000 -1.0000 0.0000
vn 0.0000 1.0000 0.0000
vn 1.0000 -0.0000 0.0000
vn -0.0000 -0.0000 1.0000
vn -1.0000 -0.0000 -0.0000
vn 0.0000 0.0000 -1.0000
usemtl Material
s off
f 1/1/1 3/2/1 4/3/1
f 5/4/2 8/5/2 6/6/2
f 1/7/3 5/8/3 6/9/3
f 2/10/4 6/11/4 7/12/4
f 3/13/5 7/14/5 8/15/5
f 5/16/6 1/17/6 4/18/6
f 6/6/2 8/5/2 7/19/2
f 3/20/1 1/21/1 2/22/1
f 6/23/3 2/24/3 1/7/3
f 7/12/4 3/25/4 2/10/4
f 8/15/5 4/26/5 3/13/5
f 4/27/6 8/28/6 5/29/6