# Blender v2.78 (sub 0) OBJ File: ''
# www.blender.org
mtllib minecraft.mtl
o Cube
v 1.000000 -1.000000 -1.000000
v 1.000000 -1.000000 1.000000
v -1.000000 -1.000000 1.000000
v -1.000000 -1.000000 -1.000000
v 1.000000 1.000000 -0.999999
v 0.999999 1.000000 1.000001
v -1.000000 1.000000 1.000000
v -1.000000 1.000000 -1.000000
vt 0.7489 0.3350
vt 0.9982 0.3350
vt 1.0009 0.6639
vt 0.7498 0.6650
vt 0.2449 0.3338
vt 0.4987 0.3338
vt 0.4987 0.6650
vt 0.2511 0.6650
vt 0.0009 0.3350
vt 0.2467 0.3361
vt 0.2493 0.6627
vt -0.0009 0.6639
vt 0.7471 0.3350
vt 0.5022 0.3338
vt 0.4969 0.6639
vt 0.7480 0.6603
vt 0.4969 0.9978
vt 0.4987 0.6664
vt 0.2520 0.6662
vt 0.2511 0.9988
vt 0.4978 0.3314
vt 0.4987 0.0000
vt 0.2511 -0.0014
vt 0.2511 0.3324
vn 0.0000 -1.0000 0.0000
vn 0.0000 1.0000 0.0000
vn 1.0000 0.0000 0.0000
vn -0.0000 -0.0000 1.0000
vn -1.0000 -0.0000 -0.0000
vn 0.0000 0.0000 -1.0000
usemtl Material
s off
f 1/1/1 2/2/1 3/3/1 4/4/1
f 5/5/2 8/6/2 7/7/2 6/8/2
f 1/9/3 5/10/3 6/11/3 2/12/3
f 2/13/4 6/14/4 7/15/4 3/16/4
f 3/17/5 7/18/5 8/19/5 4/20/5
f 5/21/6 1/22/6 4/23/6 8/24/6
